# xmcd CD database file generated by OrangeCD 6.3
#
# Track frame offsets:
#	182
#	14022
#	28497
#	42620
#	58687
#	72812
#	86425
#	100435
#	111140
#	124462
#	139902
#	154837
#	167415
#	178815
#	191767
#	205052
#	218357
#	230552
#
# Disc length: 3254 seconds
#
# Revision: 3
# Processed by: cddbd v1.5.2PL0 Copyright (c) Steve Scherf et al.
# Submitted via: OrangeCD 6.3
#
DISCID=0c0cb412
DTITLE=Tampa Red - The Guitar Wizard
DYEAR=1995
DGENRE=Slide Guitar Blues
TTITLE0=Grievin' And Worryin' Blues
TTITLE1=Witchin' Hour Blues
TTITLE2=Kingfish Blues
TTITLE3=You Missed A Good Man
TTITLE4=When The One You Love Is Gone
TTITLE5=Deceitful Friend Blues
TTITLE6=Delta Woman Blues
TTITLE7=Travel On
TTITLE8=Lone With A Feeling
TTITLE9=Why Should I Care?
TTITLE10=Got To Leave My Woman
TTITLE11=Bessemer Blues
TTITLE12=It Hurst Me Too
TTITLE13=Anna Lou Blues
TTITLE14=Hard Road Blues
TTITLE15=It's Low Down Shame
TTITLE16=So Far, So Good
TTITLE17=She's Lone Crazy
EXTD=
EXTT0=
EXTT1=
EXTT2=
EXTT3=
EXTT4=
EXTT5=
EXTT6=
EXTT7=
EXTT8=
EXTT9=
EXTT10=
EXTT11=
EXTT12=
EXTT13=
EXTT14=
EXTT15=
EXTT16=
EXTT17=
PLAYORDER=
